<svg version="1.1" xmlns="http://www.w3.org/2000/svg" xmlns:xlink="http://www.w3.org/1999/xlink" width="193.78844" height="193.78844" viewBox="0,0,193.78844,193.78844"><defs><radialGradient cx="256.78404" cy="134.64014" r="94.39422" gradientUnits="userSpaceOnUse" id="color-1"><stop offset="0" stop-color="#f9f9f9"/><stop offset="1" stop-color="#bbbbbb"/></radialGradient></defs><g transform="translate(-143.10578,-83.10578)"><g data-paper-data="{&quot;isPaintingLayer&quot;:true}" fill-rule="nonzero" stroke-linejoin="miter" stroke-miterlimit="10" stroke-dasharray="" stroke-dashoffset="0" style="mix-blend-mode: normal"><path d="M145.60578,248.1537c0,-22.83202 0,-99.93084 0,-139.17702c0,-14.14344 13.54474,-23.3709 25.88182,-23.3709c22.42649,0 97.87894,0 137.74221,0c15.15364,0 25.16441,13.32905 25.16441,25.52312c0,22.16299 0,96.78527 0,137.0248c0,15.75595 -10.00369,26.24052 -25.16441,26.24052c-40.29464,0 -117.01894,0 -139.17702,0c-11.76164,0 -24.447,-13.76096 -24.447,-26.24052z" fill="#f9f9f9" stroke="#000000" stroke-width="5" stroke-linecap="butt"/><path d="M145.60578,140.5426c0,0 0,7.68026 0,-31.56592c0,-14.14344 13.54474,-23.3709 25.88182,-23.3709c22.42649,0 97.87894,0 137.74221,0c15.15364,0 25.16441,13.32905 25.16441,25.52312c0,22.16299 0,29.4137 0,29.4137z" fill="url(#color-1)" stroke="#000000" stroke-width="5" stroke-linecap="butt"/><path d="M290.215,114.28112c0,-8.32436 6.74822,-15.07259 15.07259,-15.07259c8.32437,0 15.0726,6.74823 15.0726,15.07259c0,8.32437 -6.74823,15.0726 -15.0726,15.0726c-8.32436,0 -15.07259,-6.74823 -15.07259,-15.0726z" fill="#ff9090" stroke="#ff9090" stroke-width="0" stroke-linecap="butt"/><path d="M297.81691,247.13547c-7.96858,-7.88448 -67.39672,-66.68536 -67.39672,-66.68536l8.36243,-8.86548c0,0 62.84306,56.50251 70.83861,63.69134c1.62958,1.46517 2.11536,3.52263 0.9405,4.76817c-2.30117,2.43959 -5.93613,6.29322 -7.30183,7.74108c-1.02806,1.0899 -3.72507,1.05003 -5.44298,-0.64975z" fill="#000000" stroke="#000000" stroke-width="8.5" stroke-linecap="butt"/><path d="M168.78989,155.77104c0,-2.39756 0.19049,-4.75063 0.55716,-7.04488c4.73114,5.56491 9.8935,10.7919 15.72681,14.29189c5.73773,3.44263 9.66711,5.65275 12.95774,6.29048c0.94978,0.18408 1.84635,0.23715 2.71783,0.15106c12.09008,-0.06647 21.87043,-9.88787 21.87043,-21.99359c2.15929,-2.78893 0.19928,-6.31555 -2.27153,-9.74553c-1.06954,-2.16034 -2.48359,-4.11979 -4.17034,-5.80653v0l-4.84462,-4.84462c-5.56606,-3.33964 -9.91738,-7.90389 -14.10052,-12.67145c4.9215,-1.88666 10.26536,-2.92044 15.85066,-2.92044c24.46269,0 44.29361,19.83093 44.29361,44.29363c0,24.46269 -19.83092,44.29362 -44.29361,44.29362c-24.46269,0 -44.29362,-19.83093 -44.29362,-44.29362z" fill="#000000" stroke="#000000" stroke-width="5" stroke-linecap="butt"/><path d="M253.3036,114.25083c0,-8.32436 6.74823,-15.07259 15.07259,-15.07259c8.32437,0 15.07259,6.74822 15.07259,15.07259c0,8.32437 -6.74823,15.07259 -15.07259,15.07259c-8.32436,0 -15.07259,-6.74823 -15.07259,-15.07259z" fill="#fffca8" stroke="#ff9090" stroke-width="0" stroke-linecap="butt"/><path d="M325.95581,191.55709l0.28893,53.16259" fill="none" stroke="#dedede" stroke-width="5" stroke-linecap="round"/><path d="M325.37796,252.52071c0,0 -1.19347,6.34034 -3.16271,8.73155c-2.07065,2.51436 -8.97223,6.00373 -8.97223,6.00373" fill="none" stroke="#dedede" stroke-width="5" stroke-linecap="round"/><path d="M153.88901,108.54891c0,0 0.65764,-5.49912 5.02239,-8.9733c4.86177,-3.86978 13.53333,-5.66053 14.45357,-5.77038c6.93684,-0.82807 51.44811,-0.3231 51.44811,-0.3231" fill="none" stroke="#ffffff" stroke-width="5" stroke-linecap="round"/></g></g></svg>